<svg xmlns="http://www.w3.org/2000/svg" viewBox="0 0 596.83 630.19"><defs><style>.cls-1{fill:#5db235;}.cls-2,.cls-4{fill:#177a00;}.cls-3{fill:#ff8000;opacity:0.56;}.cls-4{stroke:#88b2c5;stroke-miterlimit:10;}.cls-5{fill:#73bc51;opacity:0.67;}</style></defs><title>Asset 1</title><g id="Layer_2" data-name="Layer 2"><g id="Layer_1-2" data-name="Layer 1"><g id="Group_10" data-name="Group 10"><path id="Path_6" data-name="Path 6" class="cls-1" d="M327.23,63c-10-6.88-4.15-63.57,18.26-63,6.7.17,15.46,5.47,19.08,12.33C375.83,33.66,337.4,70,327.23,63Z"/><path id="Path_7" data-name="Path 7" class="cls-2" d="M320.8,69c-10-6.88-4.15-63.58,18.26-63,6.69.16,15.45,5.46,19.08,12.32C369.39,39.66,331,76,320.8,69Z"/></g><g id="Group_11" data-name="Group 11"><path id="Path_6-2" data-name="Path 6-2" class="cls-1" d="M136.57,109.83c-10.12,6.69-60.5-20-51.58-40.57C87.66,63.11,95.86,57,103.58,56.19,127.58,53.76,146.87,103,136.57,109.83Z"/><path id="Path_7-2" data-name="Path 7-2" class="cls-2" d="M139.72,118.05c-10.12,6.69-60.5-20-51.58-40.57C90.81,71.33,99,65.2,106.73,64.41,130.73,62,150,111.24,139.72,118.05Z"/></g><g id="Group_12" data-name="Group 12"><path id="Path_6-3" data-name="Path 6-3" class="cls-1" d="M53.73,288.1c6.69,10.12-20,60.5-40.58,51.57C7,337,.87,328.81.09,321.09-2.35,297.09,46.92,277.8,53.73,288.1Z"/><path id="Path_7-3" data-name="Path 7-3" class="cls-2" d="M61.94,285c6.69,10.12-20,60.5-40.57,51.57-6.15-2.66-12.28-10.86-13.06-18.58C5.87,293.94,55.14,274.65,61.94,285Z"/></g><g id="Group_16" data-name="Group 16"><path id="Path_17" data-name="Path 17" class="cls-3" d="M192.2,550.43C119.7,449.17,194,283.49,272.11,265.62c18.88-4.33,24.5,3.08,56.75.84,87.1-6,112.81-64.7,149.12-59.94,68.81,9,187.87,247.36,66.9,363.7C456.15,655.55,263.9,650.59,192.2,550.43Z"/><path id="Path_18" data-name="Path 18" class="cls-4" d="M352.19,313.63c-22.07-7.41-21.4-83.06,12.14-136.59,11.94-19.06,38.06-51.29,55.1-46.27,18.22,5.37,20.76,51.74,12.15,86.27C418.41,269.86,372.77,320.53,352.19,313.63Z"/><path id="Path_19" data-name="Path 19" class="cls-5" d="M361.19,312c17.21-14.35-8.67-85.31-56.5-124.46-17-14-51.11-35.54-64.64-25.12-14.46,11.14-1.23,55.62,18,85.23C287.45,293,345.13,325.41,361.19,312Z"/></g></g></g></svg>